<svg width="252" height="77" viewBox="0 0 252 77" fill="none" xmlns="http://www.w3.org/2000/svg">
<path d="M17.464 29H8.098L1.462 0.859999H8.518L11.92 16.82L12.886 22.994H13.348L14.65 16.82L19.354 0.859999H28.72L33.382 16.82L34.684 22.994H35.146L36.112 16.82L39.514 0.859999H46.402L39.724 29H30.358L26.158 14.93L24.184 6.824H23.722L21.748 14.93L17.464 29ZM54.8765 29H48.5765V0.859999H54.8765V14.384H55.2125C55.8845 10.814 58.3625 7.538 63.7385 7.538C69.4085 7.538 72.1805 11.234 72.1805 16.106V29H65.8805V17.996C65.8805 14.468 64.3685 13.208 60.4205 13.208C56.1785 13.208 54.8765 14.93 54.8765 18.458V29ZM81.8277 29.42C77.2917 29.42 74.5617 27.32 74.5617 23.792C74.5617 20.684 76.8717 18.752 81.3657 18.29L90.3957 17.366V16.568C90.3957 13.838 89.1777 13.082 85.8177 13.082C82.6257 13.082 81.3237 13.922 81.3237 16.316V16.484H74.9817V16.358C74.9817 11.15 79.3497 7.538 86.2797 7.538C93.2937 7.538 96.6117 11.15 96.6117 16.652V29H90.7317V24.17H90.3957C89.4297 27.446 86.4897 29.42 81.8277 29.42ZM80.9037 23.372C80.9037 24.506 81.7857 24.968 83.6337 24.968C87.9177 24.968 90.2277 23.96 90.3957 20.978L83.0877 21.818C81.5757 21.944 80.9037 22.364 80.9037 23.372ZM114.631 29H109.423C104.509 29 101.527 26.69 101.527 21.398V13.166H98.209V7.958H101.527V3.884H107.827V7.958H114.631V13.166H107.827V20.684C107.827 22.784 108.625 23.33 110.851 23.33H114.631V29ZM129.771 5.816H123.471V0.859999H129.771V5.816ZM129.771 29H123.471V7.958H129.771V29ZM143.695 29.42C136.597 29.42 132.691 26.648 132.691 21.776V21.65H138.991V22.028C138.991 23.918 140.167 24.422 143.737 24.422C147.097 24.422 147.895 23.876 147.895 22.616C147.895 21.44 147.265 21.104 144.787 20.768L138.865 20.054C134.665 19.592 132.313 17.702 132.313 14.174C132.313 10.478 135.463 7.538 142.687 7.538C149.575 7.538 153.481 10.142 153.481 15.266V15.392H147.181V15.14C147.181 13.418 146.341 12.536 142.477 12.536C139.327 12.536 138.529 13.082 138.529 14.426C138.529 15.518 139.117 15.98 141.889 16.316L146.383 16.862C152.011 17.492 154.111 19.382 154.111 22.868C154.111 26.816 150.205 29.42 143.695 29.42ZM6.712 76.14H3.268V70.428H8.434C9.988 70.428 10.66 70.008 11.08 69.084L0.79 47.958H7.93L12.382 57.576L14.146 62.532H14.566L16.246 57.534L20.236 47.958H27.25L16.834 70.512C14.818 74.922 12.004 76.14 6.712 76.14ZM39.9799 69.42C32.7979 69.42 27.9679 65.136 27.9679 58.5C27.9679 51.78 32.7979 47.538 39.9799 47.538C47.1619 47.538 51.9919 51.78 51.9919 58.5C51.9919 65.136 47.1619 69.42 39.9799 69.42ZM39.9799 63.834C44.2219 63.834 45.7339 62.196 45.7339 58.5C45.7339 54.804 44.2219 53.082 39.9799 53.082C35.6959 53.082 34.2259 54.804 34.2259 58.5C34.2259 62.196 35.6959 63.834 39.9799 63.834ZM63.2588 69.42C57.3368 69.42 54.5228 65.766 54.5228 61.062V47.958H60.8228V58.962C60.8228 62.364 62.2508 63.792 66.2408 63.792C70.3568 63.792 71.8268 62.196 71.8268 58.626V47.958H78.1268V69H72.2468V62.574H71.9108C71.3648 66.102 68.8028 69.42 63.2588 69.42ZM87.648 69H81.348V47.958H87.186V53.544H87.564C88.152 50.142 90.378 47.538 94.62 47.538C99.324 47.538 101.256 50.772 101.256 54.888V58.374H94.956V56.19C94.956 53.88 94.032 52.872 91.47 52.872C88.656 52.872 87.648 54.174 87.648 56.82V69ZM116.318 69H110.018V47.958H115.856V54.426H116.234C116.78 50.898 119.3 47.538 124.802 47.538C130.556 47.538 133.286 51.234 133.286 55.896V69H126.986V57.996C126.986 54.636 125.6 53.208 121.736 53.208C117.746 53.208 116.318 54.804 116.318 58.374V69ZM142.941 69.42C138.405 69.42 135.675 67.32 135.675 63.792C135.675 60.684 137.985 58.752 142.479 58.29L151.509 57.366V56.568C151.509 53.838 150.291 53.082 146.931 53.082C143.739 53.082 142.437 53.922 142.437 56.316V56.484H136.095V56.358C136.095 51.15 140.463 47.538 147.393 47.538C154.407 47.538 157.725 51.15 157.725 56.652V69H151.845V64.17H151.509C150.543 67.446 147.603 69.42 142.941 69.42ZM142.017 63.372C142.017 64.506 142.899 64.968 144.747 64.968C149.031 64.968 151.341 63.96 151.509 60.978L144.201 61.818C142.689 61.944 142.017 62.364 142.017 63.372ZM167.218 69H160.918V47.958H166.756V54.342H167.092C167.596 50.814 169.696 47.538 174.988 47.538C179.86 47.538 182.338 50.52 182.8 54.426H183.178C183.682 50.856 185.824 47.538 191.242 47.538C196.66 47.538 199.306 51.108 199.306 55.896V69H193.006V57.996C193.006 54.51 191.788 53.208 188.176 53.208C184.354 53.208 183.262 54.72 183.262 58.374V69H176.962V57.996C176.962 54.51 175.744 53.208 172.132 53.208C168.31 53.208 167.218 54.72 167.218 58.374V69ZM213.68 69.42C206.666 69.42 201.878 65.976 201.878 58.5C201.878 51.78 206.624 47.538 213.554 47.538C220.442 47.538 225.02 51.15 225.02 57.744C225.02 58.5 224.936 59.046 224.852 59.76H207.716C207.884 62.994 209.396 64.38 213.47 64.38C217.208 64.38 218.51 63.414 218.51 61.608V61.188H224.81V61.65C224.81 66.228 220.358 69.42 213.68 69.42ZM213.428 52.452C209.69 52.452 208.094 53.712 207.8 56.442H218.972C218.804 53.67 217.124 52.452 213.428 52.452ZM240.67 59.718H234.37V58.248C234.37 55.182 236.512 53.754 239.116 52.746L242.056 51.57C244.072 50.772 245.038 50.142 245.038 48.714C245.038 47.286 244.198 46.194 239.326 46.194C234.202 46.194 232.648 47.538 232.648 50.226V51.864H226.432V50.73C226.432 45.27 230.17 40.44 239.788 40.44C248.062 40.44 251.338 44.052 251.338 48.504C251.338 52.872 248.356 54.636 245.584 55.728L242.476 56.946C240.922 57.576 240.67 58.164 240.67 59.214V59.718ZM241.174 69H233.95V62.154H241.174V69Z" fill="black"/>
</svg>
